<svg id="visual" viewBox="0 0 900 600" width="900" height="600" xmlns="http://www.w3.org/2000/svg" xmlns:xlink="http://www.w3.org/1999/xlink" version="1.1"><rect x="0" y="0" width="900" height="600" fill="#020507"></rect><path d="M0 375L21.5 383.5C43 392 86 409 128.8 414.8C171.7 420.7 214.3 415.3 257.2 417.7C300 420 343 430 385.8 433.5C428.7 437 471.3 434 514.2 428.2C557 422.3 600 413.7 642.8 405.5C685.7 397.3 728.3 389.7 771.2 391.8C814 394 857 406 878.5 412L900 418L900 601L878.5 601C857 601 814 601 771.2 601C728.3 601 685.7 601 642.8 601C600 601 557 601 514.2 601C471.3 601 428.7 601 385.8 601C343 601 300 601 257.2 601C214.3 601 171.7 601 128.8 601C86 601 43 601 21.5 601L0 601Z" fill="#0fe636"></path><path d="M0 405L21.5 407.7C43 410.3 86 415.7 128.8 418.2C171.7 420.7 214.3 420.3 257.2 426.8C300 433.3 343 446.7 385.8 446.3C428.7 446 471.3 432 514.2 430.2C557 428.3 600 438.7 642.8 439C685.7 439.3 728.3 429.7 771.2 428C814 426.3 857 432.7 878.5 435.8L900 439L900 601L878.5 601C857 601 814 601 771.2 601C728.3 601 685.7 601 642.8 601C600 601 557 601 514.2 601C471.3 601 428.7 601 385.8 601C343 601 300 601 257.2 601C214.3 601 171.7 601 128.8 601C86 601 43 601 21.5 601L0 601Z" fill="#1bde3d"></path><path d="M0 438L21.5 442.7C43 447.3 86 456.7 128.8 463.8C171.7 471 214.3 476 257.2 477.8C300 479.7 343 478.3 385.8 481.5C428.7 484.7 471.3 492.3 514.2 486.7C557 481 600 462 642.8 451.8C685.7 441.7 728.3 440.3 771.2 445.7C814 451 857 463 878.5 469L900 475L900 601L878.5 601C857 601 814 601 771.2 601C728.3 601 685.7 601 642.8 601C600 601 557 601 514.2 601C471.3 601 428.7 601 385.8 601C343 601 300 601 257.2 601C214.3 601 171.7 601 128.8 601C86 601 43 601 21.5 601L0 601Z" fill="#24d643"></path><path d="M0 483L21.5 492.2C43 501.3 86 519.7 128.8 526C171.7 532.3 214.3 526.7 257.2 519C300 511.3 343 501.7 385.8 497.3C428.7 493 471.3 494 514.2 498C557 502 600 509 642.8 509.2C685.7 509.3 728.3 502.7 771.2 503.7C814 504.7 857 513.3 878.5 517.7L900 522L900 601L878.5 601C857 601 814 601 771.2 601C728.3 601 685.7 601 642.8 601C600 601 557 601 514.2 601C471.3 601 428.7 601 385.8 601C343 601 300 601 257.2 601C214.3 601 171.7 601 128.8 601C86 601 43 601 21.5 601L0 601Z" fill="#2bce48"></path><path d="M0 549L21.5 552.3C43 555.7 86 562.3 128.8 559C171.7 555.7 214.3 542.3 257.2 539.8C300 537.3 343 545.7 385.8 551C428.7 556.3 471.3 558.7 514.2 561.5C557 564.3 600 567.7 642.8 565C685.7 562.3 728.3 553.7 771.2 546.7C814 539.7 857 534.3 878.5 531.7L900 529L900 601L878.5 601C857 601 814 601 771.2 601C728.3 601 685.7 601 642.8 601C600 601 557 601 514.2 601C471.3 601 428.7 601 385.8 601C343 601 300 601 257.2 601C214.3 601 171.7 601 128.8 601C86 601 43 601 21.5 601L0 601Z" fill="#31c64c"></path></svg>